<?xml version="1.0" encoding="UTF-8" standalone="no"?>
<!-- Created with Inkscape (http://www.inkscape.org/) -->
<svg
   xmlns:svg="http://www.w3.org/2000/svg"
   xmlns="http://www.w3.org/2000/svg"
   xmlns:xlink="http://www.w3.org/1999/xlink"
   xmlns:inkscape="http://www.inkscape.org/namespaces/inkscape"
   version="1.0"
   width="96"
   height="96"
   id="svg2">
  <defs
     id="defs2962">
    <linearGradient
       id="linearGradient7135">
      <stop
         style="stop-color:#364e59;stop-opacity:1"
         offset="0"
         id="stop7137" />
      <stop
         style="stop-color:#8aaab8;stop-opacity:1"
         offset="1"
         id="stop7139" />
    </linearGradient>
    <linearGradient
       id="linearGradient2228">
      <stop
         style="stop-color:#2d2d2d;stop-opacity:0.627451"
         offset="0"
         id="stop2230" />
      <stop
         style="stop-color:#2d2d2d;stop-opacity:0.72549021"
         offset="0.17948718"
         id="stop2236" />
      <stop
         style="stop-color:#2d2d2d;stop-opacity:0.19607843"
         offset="1"
         id="stop2232" />
    </linearGradient>
    <linearGradient
       id="linearGradient30611">
      <stop
         style="stop-color:#fffb39;stop-opacity:0.26274511"
         offset="0"
         id="stop30613" />
      <stop
         style="stop-color:#ff7700;stop-opacity:0"
         offset="1"
         id="stop30615" />
    </linearGradient>
    <linearGradient
       id="linearGradient15236">
      <stop
         style="stop-color:#aec4ce;stop-opacity:1"
         offset="0"
         id="stop15238" />
      <stop
         style="stop-color:#364e59;stop-opacity:1"
         offset="1"
         id="stop15240" />
    </linearGradient>
    <linearGradient
       id="linearGradient14247">
      <stop
         style="stop-color:#ffffff;stop-opacity:0.1122449"
         offset="0"
         id="stop14249" />
      <stop
         style="stop-color:#ffffff;stop-opacity:0.65306121"
         offset="0.64102566"
         id="stop14255" />
      <stop
         style="stop-color:#000000;stop-opacity:0.65306121"
         offset="1"
         id="stop14251" />
    </linearGradient>
    <linearGradient
       id="linearGradient13260">
      <stop
         style="stop-color:#000000;stop-opacity:0.64285713"
         offset="0"
         id="stop13262" />
      <stop
         style="stop-color:#000000;stop-opacity:0"
         offset="1"
         id="stop13264" />
    </linearGradient>
    <linearGradient
       id="linearGradient12281">
      <stop
         style="stop-color:#000000;stop-opacity:0.1632653"
         offset="0"
         id="stop12283" />
      <stop
         style="stop-color:#d0d0d0;stop-opacity:0.67346936"
         offset="1"
         id="stop12285" />
    </linearGradient>
    <linearGradient
       id="linearGradient11298">
      <stop
         style="stop-color:#364e59;stop-opacity:0"
         offset="0"
         id="stop11300" />
      <stop
         style="stop-color:#ffffff;stop-opacity:0.49803922"
         offset="0.35897437"
         id="stop11306" />
      <stop
         style="stop-color:#191d1f;stop-opacity:0.51020408"
         offset="0.85207099"
         id="stop11308" />
      <stop
         style="stop-color:#000000;stop-opacity:0.27551019"
         offset="1"
         id="stop11302" />
    </linearGradient>
    <linearGradient
       id="linearGradient11282">
      <stop
         style="stop-color:#000000;stop-opacity:0.27551019"
         offset="0"
         id="stop11284" />
      <stop
         style="stop-color:#000000;stop-opacity:0.33725491"
         offset="0"
         id="stop11294" />
      <stop
         style="stop-color:#000000;stop-opacity:0.40000001"
         offset="0.44707429"
         id="stop11292" />
      <stop
         style="stop-color:#000000;stop-opacity:0.52549022"
         offset="0.87179488"
         id="stop11290" />
      <stop
         style="stop-color:#000000;stop-opacity:0"
         offset="1"
         id="stop11286" />
    </linearGradient>
    <linearGradient
       x1="72.438133"
       y1="15.77282"
       x2="74.774849"
       y2="27.651115"
       id="linearGradient28608"
       xlink:href="#linearGradient13260"
       gradientUnits="userSpaceOnUse"
       gradientTransform="matrix(0.8919575,0,0,0.8919575,0.9930954,8.0749558)" />
    <linearGradient
       x1="69.810379"
       y1="1.7525353"
       x2="72.048683"
       y2="10.44143"
       id="linearGradient28614"
       xlink:href="#linearGradient14247"
       gradientUnits="userSpaceOnUse"
       gradientTransform="matrix(0.8919575,0,0,0.8919575,0.9930954,8.0749558)" />
    <linearGradient
       x1="72.048683"
       y1="23.172415"
       x2="80.811363"
       y2="24.438133"
       id="linearGradient28617"
       xlink:href="#linearGradient12281"
       gradientUnits="userSpaceOnUse"
       gradientTransform="matrix(0.8919575,0,0,0.8919575,0.9930954,8.0749558)" />
    <radialGradient
       cx="76.469894"
       cy="26.536655"
       r="42"
       fx="76.469894"
       fy="26.536655"
       id="radialGradient28634"
       xlink:href="#linearGradient15236"
       gradientUnits="userSpaceOnUse"
       gradientTransform="matrix(1.2958357,-0.3261563,-0.4591548,-1.824264,-12.96615,134.52818)" />
    <linearGradient
       x1="34.855984"
       y1="86.84787"
       x2="75.943207"
       y2="32.713993"
       id="linearGradient28650"
       xlink:href="#linearGradient11282"
       gradientUnits="userSpaceOnUse"
       gradientTransform="matrix(0.8919575,0,0,-0.8919575,0.9930954,87.925044)" />
    <linearGradient
       x1="62.797768"
       y1="0.88034201"
       x2="95.415817"
       y2="28.235294"
       id="linearGradient28654"
       xlink:href="#linearGradient11298"
       gradientUnits="userSpaceOnUse"
       gradientTransform="matrix(0.8919575,0,0,-0.8919575,0.9930954,87.925044)" />
    <radialGradient
       cx="54.206078"
       cy="52.527138"
       r="26.40517"
       fx="54.206078"
       fy="52.527138"
       id="radialGradient30617"
       xlink:href="#linearGradient30611"
       gradientUnits="userSpaceOnUse"
       gradientTransform="matrix(1.5291018,-0.1546147,0.1279331,1.2652278,-33.307618,-7.0594784)" />
    <linearGradient
       x1="24.730223"
       y1="59.196754"
       x2="45.955376"
       y2="81.979713"
       id="linearGradient30621"
       xlink:href="#linearGradient30611"
       gradientUnits="userSpaceOnUse" />
    <filter
       x="-0.15120098"
       width="1.302402"
       y="-0.15899485"
       height="1.3179897"
       id="filter33577">
      <feGaussianBlur
         inkscape:collect="always"
         stdDeviation="6.0063286"
         id="feGaussianBlur33579" />
    </filter>
    <linearGradient
       x1="3.3022115"
       y1="87.095528"
       x2="87.508598"
       y2="87.095528"
       id="linearGradient2234"
       xlink:href="#linearGradient2228"
       gradientUnits="userSpaceOnUse" />
    <filter
       id="filter3213"
       height="3.1526649"
       y="-1.0763324"
       width="1.1775247"
       x="-0.088762328">
      <feGaussianBlur
         id="feGaussianBlur3215"
         stdDeviation="3.9988846"
         inkscape:collect="always" />
    </filter>
    <linearGradient
       x1="34.855984"
       y1="86.84787"
       x2="75.943207"
       y2="32.713993"
       id="linearGradient10089"
       xlink:href="#linearGradient11282"
       gradientUnits="userSpaceOnUse"
       gradientTransform="matrix(0.8919575,0,0,-0.8919575,0.9930954,87.925044)" />
    <linearGradient
       x1="62.797768"
       y1="0.88034201"
       x2="95.415817"
       y2="28.235294"
       id="linearGradient10091"
       xlink:href="#linearGradient11298"
       gradientUnits="userSpaceOnUse"
       gradientTransform="matrix(0.8919575,0,0,-0.8919575,0.9930954,87.925044)" />
    <linearGradient
       x1="72.048683"
       y1="23.172415"
       x2="80.811363"
       y2="24.438133"
       id="linearGradient10093"
       xlink:href="#linearGradient12281"
       gradientUnits="userSpaceOnUse"
       gradientTransform="matrix(0.8919575,0,0,0.8919575,0.9930954,8.0749558)" />
    <linearGradient
       x1="69.810379"
       y1="1.7525353"
       x2="72.048683"
       y2="10.44143"
       id="linearGradient10095"
       xlink:href="#linearGradient14247"
       gradientUnits="userSpaceOnUse"
       gradientTransform="matrix(0.8919575,0,0,0.8919575,0.9930954,8.0749558)" />
    <radialGradient
       cx="76.469894"
       cy="26.536655"
       r="42"
       fx="76.469894"
       fy="26.536655"
       id="radialGradient10097"
       xlink:href="#linearGradient15236"
       gradientUnits="userSpaceOnUse"
       gradientTransform="matrix(1.2958357,-0.3261563,-0.4591548,-1.824264,-12.96615,134.52818)" />
    <linearGradient
       x1="72.438133"
       y1="15.77282"
       x2="74.774849"
       y2="27.651115"
       id="linearGradient10099"
       xlink:href="#linearGradient13260"
       gradientUnits="userSpaceOnUse"
       gradientTransform="matrix(0.8919575,0,0,0.8919575,0.9930954,8.0749558)" />
    <radialGradient
       cx="54.206078"
       cy="52.527138"
       r="26.40517"
       fx="54.206078"
       fy="52.527138"
       id="radialGradient10101"
       xlink:href="#linearGradient30611"
       gradientUnits="userSpaceOnUse"
       gradientTransform="matrix(1.5291018,-0.1546147,0.1279331,1.2652278,-33.307618,-7.0594784)" />
    <linearGradient
       x1="24.730223"
       y1="59.196754"
       x2="45.955376"
       y2="81.979713"
       id="linearGradient10103"
       xlink:href="#linearGradient30611"
       gradientUnits="userSpaceOnUse" />
    <linearGradient
       x1="24.730223"
       y1="59.196754"
       x2="45.955376"
       y2="81.979713"
       id="linearGradient10106"
       xlink:href="#linearGradient30611"
       gradientUnits="userSpaceOnUse"
       gradientTransform="translate(-86.329238,-12.501229)" />
    <radialGradient
       cx="54.206078"
       cy="52.527138"
       r="26.40517"
       fx="54.206078"
       fy="52.527138"
       id="radialGradient10109"
       xlink:href="#linearGradient30611"
       gradientUnits="userSpaceOnUse"
       gradientTransform="matrix(1.5291018,-0.1546147,0.1279331,1.2652278,-119.63686,-19.560707)" />
    <linearGradient
       x1="72.438133"
       y1="15.77282"
       x2="74.774849"
       y2="27.651115"
       id="linearGradient10113"
       xlink:href="#linearGradient13260"
       gradientUnits="userSpaceOnUse"
       gradientTransform="matrix(0.8919575,0,0,0.8919575,-85.336143,-4.4262732)" />
    <radialGradient
       cx="76.469894"
       cy="26.536655"
       r="42"
       fx="76.469894"
       fy="26.536655"
       id="radialGradient10116"
       xlink:href="#linearGradient15236"
       gradientUnits="userSpaceOnUse"
       gradientTransform="matrix(1.2958357,-0.3261563,-0.4591548,-1.824264,-99.295388,122.02695)" />
    <linearGradient
       x1="69.810379"
       y1="1.7525353"
       x2="72.048683"
       y2="10.44143"
       id="linearGradient10119"
       xlink:href="#linearGradient14247"
       gradientUnits="userSpaceOnUse"
       gradientTransform="matrix(0.8919575,0,0,0.8919575,-85.336143,-4.4262732)" />
    <linearGradient
       x1="72.048683"
       y1="23.172415"
       x2="80.811363"
       y2="24.438133"
       id="linearGradient10122"
       xlink:href="#linearGradient12281"
       gradientUnits="userSpaceOnUse"
       gradientTransform="matrix(0.8919575,0,0,0.8919575,-85.336143,-4.4262732)" />
    <linearGradient
       x1="62.797768"
       y1="0.88034201"
       x2="95.415817"
       y2="28.235294"
       id="linearGradient10126"
       xlink:href="#linearGradient11298"
       gradientUnits="userSpaceOnUse"
       gradientTransform="matrix(0.8919575,0,0,-0.8919575,-85.336143,75.423815)" />
    <linearGradient
       x1="34.855984"
       y1="86.84787"
       x2="75.943207"
       y2="32.713993"
       id="linearGradient10129"
       xlink:href="#linearGradient11282"
       gradientUnits="userSpaceOnUse"
       gradientTransform="matrix(0.8919575,0,0,-0.8919575,-85.336143,75.423815)" />
  </defs>
  <path
     d="M 91.754299,87.036858 C 91.754299,89.510686 42.087154,90.810813 17.218673,90.810813 C 10.040608,90.810813 1.651104,89.510686 1.651104,87.036858 C 1.651104,84.56303 9.3329915,83.734646 19.341523,83.498774 C 44.2031,82.912858 91.754299,84.56303 91.754299,87.036858 z "
     style="fill:url(#linearGradient2234);fill-opacity:1;fill-rule:nonzero;stroke:none;stroke-width:2.20000005;stroke-linecap:round;stroke-linejoin:miter;stroke-miterlimit:4;stroke-opacity:1;filter:url(#filter3213)"
     id="path2225" />
  <path
     d="M 49.59375,32.75 L 43.9375,38.34375 C 43.928985,38.337583 43.914532,38.318408 43.90625,38.3125 C 42.168459,37.072877 41.584944,36.647663 41.25,36.75 C 41.239949,36.738971 41.228804,36.729784 41.21875,36.71875 L 41.1875,36.75 L 8.65625,68.4375 C 3.9279794,73.035279 3.856337,80.536733 8.46875,85.25 C 13.081161,89.963268 20.584229,90.06653 25.3125,85.46875 L 57.84375,53.75 C 57.843749,53.750001 57.813533,53.689453 57.8125,53.6875 C 57.801693,53.66707 57.464363,53.205786 56.8125,52.28125 C 56.801862,52.266164 56.792188,52.234248 56.78125,52.21875 L 59.3125,49.6875 L 62.78125,46.28125 L 49.59375,32.75 z "
     style="fill:#ff7700;fill-opacity:1;fill-rule:evenodd;stroke:#b34f00;stroke-width:4;stroke-linecap:butt;stroke-linejoin:miter;stroke-miterlimit:4;stroke-dasharray:none;stroke-opacity:1"
     id="path10063" />
  <path
     d="M 67.46875,12.9375 C 67.084644,12.955314 66.681882,12.993809 66.28125,13.03125 C 65.881259,13.068487 65.496913,13.132984 65.09375,13.1875 C 64.689776,13.242319 64.269129,13.305055 63.875,13.375 C 63.63784,13.417187 63.41713,13.452988 63.1875,13.5 C 62.886382,13.56137 62.595314,13.618813 62.3125,13.6875 C 62.135578,13.730664 61.948806,13.766811 61.78125,13.8125 C 61.401292,13.915709 61.037929,14.042404 60.71875,14.15625 C 60.544273,14.219381 60.370033,14.309377 60.21875,14.375 C 60.138322,14.409874 60.04195,14.433298 59.96875,14.46875 C 59.928593,14.488335 59.88159,14.511506 59.84375,14.53125 C 59.681214,14.61659 59.521451,14.693683 59.40625,14.78125 C 59.354434,14.820637 59.301105,14.865733 59.25,14.90625 C 58.972559,15.036842 58.719185,15.169646 58.53125,15.3125 C 56.648063,16.743958 53.52155,19.256323 52.15625,22.875 C 50.77415,26.538225 51.281257,31.03125 51.28125,31.03125 L 43.8125,38.4375 L 56.71875,52.28125 L 65.15625,43.84375 C 66.790965,43.900166 69.362472,43.834543 71.71875,42.96875 C 72.040004,42.850708 72.35212,42.73749 72.65625,42.59375 C 73.227541,42.469133 73.792102,42.296448 74.34375,42.09375 C 76.385826,41.343412 78.081358,40.032469 79.4375,38.6875 C 80.492274,37.641415 81.335382,36.568449 81.96875,35.75 C 83.416448,33.879272 83.973887,28.250567 82.96875,25.4375 C 81.987678,23.020228 79.797199,24.585958 78.46875,25.46875 L 78.3125,25.6875 C 78.045421,25.835141 77.875,26 77.875,26 L 73.59375,30.09375 L 67.5625,29.0625 L 66.5,21.40625 L 71.78125,16 C 71.781248,16 71.953053,15.864622 72.09375,15.59375 C 72.14202,15.504754 72.187135,15.393305 72.21875,15.28125 C 72.276994,15.062126 72.280301,14.786478 72.1875,14.5 C 72.160052,14.419917 72.108038,14.334142 72.0625,14.25 C 72.026408,14.180474 72.018491,14.103174 71.96875,14.03125 C 71.961235,14.020848 71.945323,14.010451 71.9375,14 C 71.827827,13.848426 71.680555,13.691011 71.5,13.53125 C 71.490908,13.523416 71.4783,13.507667 71.46875,13.5 C 71.278754,13.336276 70.958913,13.216867 70.59375,13.125 C 70.110779,13.007213 69.466686,12.955387 68.78125,12.9375 C 68.366275,12.928802 67.929676,12.916124 67.46875,12.9375 z "
     style="fill:#364e59;fill-opacity:1;fill-rule:evenodd;stroke:#364e59;stroke-width:4;stroke-linecap:butt;stroke-linejoin:miter;stroke-miterlimit:4;stroke-dasharray:none;stroke-opacity:1"
     id="path2217" />
  <g
     id="g32565">
    <path
       d="M 57.833671,53.744422 C 57.833671,53.744422 57.745735,53.542895 55.518555,50.457702 C 53.283006,47.360916 45.720803,39.622148 43.883667,38.311657 C 42.058109,37.009426 41.513184,36.590264 41.184584,36.754564 C 40.864385,36.914663 42.471902,45.394821 42.471902,45.394821 L 57.833671,53.744422 z "
       style="fill:#ff7700;fill-opacity:1;fill-rule:evenodd;stroke:none;stroke-width:1px;stroke-linecap:butt;stroke-linejoin:miter;stroke-opacity:1"
       id="path30623" />
    <path
       d="M 67.71875,12.71875 C 64.645911,12.861262 60.833239,13.667839 59.65625,14.5625 C 57.773066,15.993959 56.365301,18.162574 55,21.78125 C 53.617904,25.444475 54.125007,29.96875 54.125,29.96875 L 44.03125,39.96875 L 56.34375,52.65625 L 66.40625,42.65625 C 66.406252,42.656245 70.918711,43.22536 74.59375,41.875 C 76.635827,41.124664 78.331358,39.813719 79.6875,38.46875 C 80.742275,37.422667 81.585382,36.349699 82.21875,35.53125 C 83.666449,33.660524 84.223887,28.031817 83.21875,25.21875 C 82.237679,22.801479 80.047199,24.367208 78.71875,25.25 L 75.28125,30.125 L 67.8125,28.84375 L 66.75,21.1875 L 72.03125,15.78125 C 72.031248,15.78125 73.308621,14.65131 71.71875,13.28125 C 71.124189,12.768898 69.562454,12.633243 67.71875,12.71875 z "
       style="fill:#9eabb0;fill-opacity:1;fill-rule:evenodd;stroke:none;stroke-width:0.74479431;stroke-linecap:butt;stroke-linejoin:miter;stroke-miterlimit:4;stroke-dasharray:none;stroke-opacity:1"
       id="path11268" />
    <path
       d="M 71.987853,15.760626 L 66.733806,21.144939 L 64.171917,22.013376 L 69.816758,16.194845 L 71.987853,15.760626 z "
       style="fill:#000000;fill-opacity:0.65517243;fill-rule:evenodd;stroke:none;stroke-width:1px;stroke-linecap:butt;stroke-linejoin:miter;stroke-opacity:1"
       id="path14257" />
    <path
       d="M 67.71875,12.71875 C 64.645911,12.861262 60.833239,13.667839 59.65625,14.5625 C 57.773066,15.993959 56.365301,18.162574 55,21.78125 C 53.617904,25.444475 54.125007,29.96875 54.125,29.96875 L 44.03125,39.96875 L 56.34375,52.65625 L 66.40625,42.65625 C 66.406252,42.656245 70.918711,43.22536 74.59375,41.875 C 76.635827,41.124664 78.331358,39.813719 79.6875,38.46875 C 80.742275,37.422667 81.585382,36.349699 82.21875,35.53125 C 83.666449,33.660524 84.223887,28.031817 83.21875,25.21875 C 82.237679,22.801479 80.047199,24.367208 78.71875,25.25 L 75.28125,30.125 L 67.8125,28.84375 L 66.75,21.1875 L 72.03125,15.78125 C 72.031248,15.78125 73.308621,14.65131 71.71875,13.28125 C 71.124189,12.768898 69.562454,12.633243 67.71875,12.71875 z "
       style="fill:url(#linearGradient28650);fill-opacity:1;fill-rule:evenodd;stroke:none;stroke-width:0.74479431;stroke-linecap:butt;stroke-linejoin:miter;stroke-miterlimit:4;stroke-dasharray:none;stroke-opacity:1"
       id="path11272" />
    <path
       d="M 67.71875,12.71875 C 64.645911,12.861262 60.833239,13.667839 59.65625,14.5625 C 57.773066,15.993959 56.365301,18.162574 55,21.78125 C 53.617904,25.444475 54.125007,29.96875 54.125,29.96875 L 44.03125,39.96875 L 56.34375,52.65625 L 66.40625,42.65625 C 66.406252,42.656245 70.918711,43.22536 74.59375,41.875 C 76.635827,41.124664 78.331358,39.813719 79.6875,38.46875 C 80.742275,37.422667 81.585382,36.349699 82.21875,35.53125 C 83.666449,33.660524 84.223887,28.031817 83.21875,25.21875 C 82.237679,22.801479 80.047199,24.367208 78.71875,25.25 L 75.28125,30.125 L 67.8125,28.84375 L 66.75,21.1875 L 72.03125,15.78125 C 72.031248,15.78125 73.308621,14.65131 71.71875,13.28125 C 71.124189,12.768898 69.562454,12.633243 67.71875,12.71875 z "
       style="fill:url(#linearGradient28654);fill-opacity:1;fill-rule:evenodd;stroke:none;stroke-width:0.74479431;stroke-linecap:butt;stroke-linejoin:miter;stroke-miterlimit:4;stroke-dasharray:none;stroke-opacity:1"
       id="path11296" />
    <path
       d="M 56.79803,52.282729 L 55.352262,51.800806 L 56.316107,52.695805 L 56.79803,52.282729 z "
       style="fill:#ff7700;fill-opacity:1;fill-rule:evenodd;stroke:none;stroke-width:1px;stroke-linecap:butt;stroke-linejoin:miter;stroke-opacity:1"
       id="path31594" />
    <path
       d="M 75.331336,30.133265 L 67.689088,28.787188 L 63.129792,30.524062 L 73.594462,32.738579 L 75.331336,30.133265 z "
       style="fill:url(#linearGradient28617);fill-opacity:1;fill-rule:evenodd;stroke:none;stroke-width:1px;stroke-linecap:butt;stroke-linejoin:miter;stroke-opacity:1"
       id="path11310" />
    <path
       d="M 72.020407,15.774371 C 72.020407,15.774371 73.321186,14.666521 71.731315,13.296461 C 70.14582,11.930188 61.543396,13.125751 59.660213,14.557209 C 57.777029,15.988668 51.614087,23.663439 54.996681,21.788095 L 62.436732,17.663259 L 72.020407,15.774371 z "
       style="fill:url(#linearGradient28614);fill-opacity:1;fill-rule:evenodd;stroke:none;stroke-width:0.74479431;stroke-linecap:butt;stroke-linejoin:miter;stroke-miterlimit:4;stroke-dasharray:none;stroke-opacity:1"
       id="path13268" />
    <path
       d="M 65.65625,13.46875 C 63.092261,13.509491 59.958239,14.199089 58.78125,15.09375 C 56.898064,16.525208 53.77155,19.037573 52.40625,22.65625 C 51.024153,26.319476 51.531257,30.8125 51.53125,30.8125 L 43.1875,39.09375 L 55.46875,51.78125 L 63.78125,43.53125 C 63.781248,43.531244 68.293711,44.10036 71.96875,42.75 C 74.010823,41.999664 75.706358,40.688717 77.0625,39.34375 C 78.117271,38.297666 78.960383,37.224699 79.59375,36.40625 C 81.041446,34.535523 81.946264,27.659755 80.59375,26.0625 C 79.237505,24.460838 78.125,25.78125 78.125,25.78125 L 72.6875,31 L 65.21875,29.71875 L 64.15625,22.0625 L 69.40625,16.65625 C 69.406253,16.65625 70.71487,15.526309 69.125,14.15625 C 68.530438,13.643897 67.194643,13.444305 65.65625,13.46875 z "
       style="fill:url(#radialGradient28634);fill-opacity:1;fill-rule:evenodd;stroke:none;stroke-width:0.74479431;stroke-linecap:butt;stroke-linejoin:miter;stroke-miterlimit:4;stroke-dasharray:none;stroke-opacity:1"
       id="path4436" />
    <path
       d="M 67.775931,28.743766 L 66.733806,21.144939 L 64.128494,22.013376 L 65.214041,29.742469 L 67.775931,28.743766 z "
       style="fill:url(#linearGradient28608);fill-opacity:1;fill-rule:evenodd;stroke:none;stroke-width:1px;stroke-linecap:butt;stroke-linejoin:miter;stroke-opacity:1"
       id="path12289" />
    <path
       d="M 41.205459,36.733117 L 8.6546627,68.448801 C 3.9263912,73.046578 3.8331202,80.542477 8.4455327,85.255744 C 13.057944,89.969013 20.577696,90.061991 25.305967,85.464211 L 57.856764,53.748526 C 50.998253,48.4898 45.723203,43.162227 41.205459,36.733117 z "
       style="fill:#ff7700;fill-opacity:1;fill-rule:nonzero;stroke:none;stroke-width:2.20000005;stroke-linecap:round;stroke-linejoin:miter;stroke-miterlimit:4;stroke-opacity:1"
       id="rect28656" />
    <path
       d="M 41.205459,36.733117 L 8.6546627,68.448801 C 3.9263912,73.046578 3.8331202,80.542477 8.4455327,85.255744 C 13.057944,89.969013 20.577696,90.061991 25.305967,85.464211 L 57.856764,53.748526 C 51.686714,48.145569 46.687048,42.74915 41.205459,36.733117 z "
       style="fill:url(#radialGradient30617);fill-opacity:1;fill-rule:nonzero;stroke:none;stroke-width:2.20000005;stroke-linecap:round;stroke-linejoin:miter;stroke-miterlimit:4;stroke-opacity:1"
       id="path30609" />
    <path
       d="M 41.205459,36.733117 L 8.6546627,68.448801 C 3.9263912,73.046578 3.8331202,80.542477 8.4455327,85.255744 C 13.057944,89.969013 20.577696,90.061991 25.305967,85.464211 L 57.856764,53.748526 C 51.824406,48.420953 46.205125,42.886843 41.205459,36.733117 z "
       style="fill:url(#linearGradient30621);fill-opacity:1;fill-rule:nonzero;stroke:none;stroke-width:2.20000005;stroke-linecap:round;stroke-linejoin:miter;stroke-miterlimit:4;stroke-opacity:1"
       id="path30619" />
  </g>
  <path
     d="M 41.778003,35.976442 C 47.110132,42.410945 52.942621,48.762054 58.775111,53.278508"
     style="fill:none;fill-rule:evenodd;stroke:#b34f00;stroke-width:2;stroke-linecap:butt;stroke-linejoin:miter;stroke-miterlimit:4;stroke-dasharray:none;stroke-opacity:1"
     id="path20113" />
</svg>
