<?xml version="1.0"?>
<?xml-stylesheet type="text/css" href="default.css"?><svg xmlns="http://www.w3.org/2000/svg" xmlns:xlink="http://www.w3.org/1999/xlink" xmlns:ev="http://www.w3.org/2001/xml-events" version="1.1" baseProfile="full" x="0" y="0" width="800" height="500" id="graphe"><g id="liaisons"><line marker-start="url(#startArrow)" class="unselected" x1="583.532786885246" y1="190" x2="527.467213114754" y2="118" id="line_7"/><line marker-start="url(#startArrow)" class="unselected" x1="374" y1="96.8068181818182" x2="466" y2="94.1931818181818" id="line_18"/><line marker-start="url(#startArrow)" class="unselected" x1="607.277456647399" y1="363" x2="603.722543352601" y2="240" id="line_13"/><line marker-start="url(#startArrow)" class="unselected" x1="259.65811965812" y1="190" x2="312.34188034188" y2="123" id="line_8"/><line marker-start="url(#startArrow)" class="unselected" x1="216.924418604651" y1="362" x2="236.075581395349" y2="240" id="line_11"/><line marker-start="url(#startArrow)" class="unselected" x1="381.293103448276" y1="364" x2="263.706896551724" y2="240" id="line_16"/><line marker-start="url(#startArrow)" class="unselected" x1="483" y1="388.615763546798" x2="524" y2="388.413793103448" id="line_17"/></g><g id="sommets"><rect height="50" width="84" class="unselected" x="466" y="68" id="rect_1"/><text class="unselectedText" x="478" y="98">Texte 1</text><rect height="50" width="84" class="unselected" x="561" y="190" id="rect_3"/><text class="unselectedText" x="573" y="220">Texte 3</text><rect height="50" width="84" class="selected" x="290" y="73" id="rect_4"/><text class="selectedText" x="302" y="103">Texte 4</text><rect height="50" width="180" class="unselected" x="150" y="190" id="rect_5"/><text class="unselectedText" x="162" y="220">Cinquième texte</text><rect height="50" width="156" class="unselected" x="135" y="362" id="rect_10"/><text class="unselectedText" x="147" y="392">Sixième texte</text><rect height="50" width="168" class="unselected" x="524" y="363" id="rect_12"/><text class="unselectedText" x="536" y="393">Septième texte</text><rect height="50" width="156" class="unselected" x="327" y="364" id="rect_14"/><text class="unselectedText" x="339" y="394">Huitème texte</text></g></svg>
